<svg xmlns:xlink="http://www.w3.org/1999/xlink" width="123" height="28" viewBox="0 0 123 28" fill="none" xmlns="http://www.w3.org/2000/svg"><path d="M13.8984 0.00871715C20.6805 0.00871715 24.0898 3.52027 24.0898 3.52027L20.9769 8.36508C19.1624 6.85405 16.8919 5.99484 14.5294 5.9254C8.96993 5.9254 6.70871 9.4752 6.70871 13.3933C6.70871 18.4216 10.1937 21.4183 14.3058 21.4183C16.2578 21.3716 18.1425 20.697 19.679 19.4949V17.4619H15.9359V11.9518H25.4237V26.8889H20.0136V26.1497C20.0136 25.5952 20.0493 25.0408 20.0493 25.0408H19.9765C17.9865 26.5799 15.5265 27.3894 13.0092 27.3337C6.2284 27.3337 0.00201798 22.2685 0.00201798 13.6165C-0.0295856 11.7989 0.310316 9.99394 1.00082 8.31171C1.69132 6.62949 2.71796 5.10522 4.01827 3.83191C5.31859 2.55861 6.8653 1.56285 8.56394 0.905547C10.2626 0.248241 12.0776 -0.056875 13.8984 0.00871715Z" fill="#FFFFFF"></path><path d="M59.5935 21.3441H65.2258V10.3264C65.2258 9.32715 65.2628 8.29084 65.2628 8.29084H65.1887C64.9282 8.81645 64.577 9.29236 64.1514 9.69677L62.5572 11.1383L58.8155 7.14506L65.9667 0.453369H71.562V21.3441H77.234V26.8912H59.5935V21.3441Z" fill="#FFFFFF"></path><path d="M83.3844 12.6913C82.6253 12.0836 82.0143 11.312 81.5972 10.4346C81.1801 9.55727 80.9678 8.59702 80.9763 7.62602C80.9763 3.77926 83.682 0.0090332 89.87 0.0090332C94.7997 0.0090332 98.8379 2.74547 98.8379 7.6629C98.8379 10.5104 96.5039 13.3579 96.2446 13.6893C97.2046 14.2704 97.9965 15.0909 98.5423 16.07C99.0882 17.049 99.3692 18.153 99.3578 19.2733C99.3578 23.3036 96.0952 27.3326 89.5366 27.3326C83.0893 27.3326 79.7168 23.3406 79.7168 19.1255C79.7168 15.7235 82.5706 13.321 83.3844 12.6913ZM87.757 15.354C86.8938 16.2081 86.3899 17.3589 86.348 18.5711C86.3535 18.9821 86.4406 19.3879 86.6042 19.7651C86.7678 20.1424 87.0047 20.4835 87.3013 20.7688C87.5977 21.0542 87.9478 21.2781 88.3316 21.4277C88.7152 21.5773 89.1249 21.6495 89.5366 21.6403C91.5002 21.6403 92.7239 20.6793 92.7239 18.9407C92.7239 17.4239 90.3516 16.5368 87.757 15.354ZM91.5754 11.3975C92.1595 10.4104 92.4785 9.28963 92.5016 8.14352C92.5063 7.79253 92.4348 7.4446 92.2921 7.12377C92.1494 6.80295 91.9388 6.51688 91.6746 6.28498C91.4105 6.05308 91.0993 5.88091 90.7622 5.7804C90.4251 5.67988 90.0703 5.65332 89.7219 5.7026C88.0535 5.7026 87.3125 6.62669 87.3125 7.77384C87.3125 9.51112 89.2402 10.3983 91.5754 11.3975Z" fill="#FFFFFF"></path><path d="M103.062 13.616C103.062 6.03595 105.51 0.00830078 113.032 0.00830078C120.554 0.00830078 123 6.03595 123 13.616C123 21.1962 120.554 27.3333 113.032 27.3333C105.51 27.3333 103.062 21.1962 103.062 13.616ZM116.329 13.616C116.329 9.32698 115.588 5.92499 113.032 5.92499C110.474 5.92499 109.733 9.32698 109.733 13.616C109.733 17.942 110.474 21.4179 113.032 21.4179C115.588 21.4179 116.329 17.942 116.329 13.616Z" fill="#FFFFFF"></path><g id="logo-o-check" class="logo-o" style="translate: none; rotate: none; scale: none; transform-origin: 0px 0px;" data-svg-origin="42.3607873916626 13.671503057703376" transform="matrix(-0.10453,-0.99452,0.99452,-0.10453,33.19218,57.22924)" fill="none"><path d="M35.2068 13.6714C35.2847 18.0993 38.4361 21.4184 42.3516 21.4184V27.3339C40.535 27.3736 38.729 27.0488 37.0408 26.3782C35.3526 25.7077 33.8168 24.7054 32.5247 23.4308C31.2324 22.1563 30.2103 20.6355 29.5189 18.959C28.8275 17.2824 28.4811 15.4842 28.5001 13.6714H35.2068Z" fill="#FFFFFF"></path><path d="M49.5135 13.6716C49.4356 9.24363 46.2841 5.92579 42.3687 5.92579V0.00910853C44.1853 -0.0306235 45.9913 0.294388 47.6795 0.964908C49.3677 1.63543 50.9036 2.63777 52.1959 3.91228C53.4882 5.1868 54.5104 6.70745 55.2019 8.38399C55.8935 10.0605 56.2402 11.8587 56.2215 13.6716H49.5135Z" fill="#FFFFFF"></path></g></svg>